<svg xmlns="http://www.w3.org/2000/svg" width="32" height="32" viewBox="0 0 32 32">
    <path data-name="Subtraction 42" d="M28.334 30.219a1.093 1.093 0 0 1-.719-.219c-.307-.291-7.456-7.411-8-7.989-.393-.4 0-1.256 0-1.264l-.432-.448a10.4 10.4 0 0 1-6.772 2.514A10.418 10.418 0 0 1 2.005 12.406 10.418 10.418 0 0 1 12.411 2a10.418 10.418 0 0 1 10.407 10.406 10.4 10.4 0 0 1-2.514 6.772l.448.432a1.858 1.858 0 0 1 .836-.25.765.765 0 0 1 .518.179c1.323 1.363 7.525 7.7 7.9 8.076a1.309 1.309 0 0 1 .3.928 1.53 1.53 0 0 1-.579 1.131 2.168 2.168 0 0 1-1.393.545zM12.407 5.201a7.159 7.159 0 0 0-5.1 2.107 7.16 7.16 0 0 0-2.107 5.1 7.158 7.158 0 0 0 2.107 5.1 7.16 7.16 0 0 0 5.1 2.107 7.159 7.159 0 0 0 5.1-2.107 7.159 7.159 0 0 0 2.107-5.1 7.16 7.16 0 0 0-2.107-5.1 7.158 7.158 0 0 0-5.1-2.106z"/>
</svg>
